<svg width="26" height="26" viewBox="0 0 26 26" fill="none" xmlns="http://www.w3.org/2000/svg">
<path d="M19 7.5H7C4.51472 7.5 2.5 9.51472 2.5 12V17C2.5 19.4853 4.51472 21.5 7 21.5H19C21.4853 21.5 23.5 19.4853 23.5 17V12C23.5 9.51472 21.4853 7.5 19 7.5Z" fill="white" stroke="black"/>
<path d="M20 7.5H6C4.067 7.5 2.5 9.067 2.5 11V15C2.5 16.933 4.067 18.5 6 18.5H20C21.933 18.5 23.5 16.933 23.5 15V11C23.5 9.067 21.933 7.5 20 7.5Z" fill="white" stroke="black"/>
<rect x="11.5" y="2.5" width="12" height="13" rx="2.5" fill="#FFFEFE" stroke="black"/>
<rect x="6" y="8" width="17" height="8" fill="white"/>
<path d="M18.5 8V13" stroke="black"/>
<path d="M9 12.5H19" stroke="black"/>
<path d="M7 12.5001L9.25 10.335V14.6652L7 12.5001Z" fill="black"/>
</svg>
